<svg xmlns="http://www.w3.org/2000/svg" xml:space="preserve" viewBox="0 0 460 460"><path fill="#028693" d="M255 461H5c-3 0-4-1-4-4V5c0-3 1-4 4-4h452c3 0 4 1 4 4v452c0 3-1 4-4 4H255z"/><path fill="#03040A" d="m135 172 1 21c4 2 8 1 12 1h4c5 2 11 1 17 1a28 28 0 0 1 5 0h3v-1l-2-4-1-3-1-2c0-6-3-11-2-18l1-4v-1l1-1v-2l4-5 2-2 3-2 1-1h2l5 6c1 4 1 9 5 11l1 4-1 2c-8 2-8 2-8 10l-1 1v2l-1 2 1 1a6 6 0 0 0 1 2l1 1 4 11c2 2 4 2 6 2s2 1 3 3v4c1 4-1 6-5 5l-5-1-9-2c-4-1-8 0-9-5v-2l-1-1v-1c-4 1-2 5-3 7v1l-1 3-1 2-1 1c-2 1-3 3-2 4 2 1 3 0 4-2l3-3 5-1 3 3 2 1 2 2 9 7v2l1 2-1 6c-2 2-2 4 0 6 4 3 6 7 8 10l1 3c-2 2-4 2-7 1-5 0-4-5-7-8l-2-4-1-1v-1l-1-3h-1c-3-9-9-9-17-8h-35c-6 0-12-2-17-4-9-5-11-13-13-21l-1-17c-1-3-2-5-5-5-7-1-13-5-16-11-5-9-4-15 3-22 8-8 17-14 30-11l5 2h1c1 4 6 3 8 6l1 1 3 3 5 9 1 3v5z"/><path fill="#020408" d="m194 257 6 1 1-1 2-8 1-1 3-1 1-1h2l2-1h4l2-1 3-2h4c4 3 8 6 5 12l-1 2c0 2-2 3-3 5v1c-2 2-3 2-5 2h-9l-2 1-1 1 2-1 2-1h4l2 1c7 6 7 8-1 15l-1 1h-2l-1 1h-1l-1 2-2 3-6 2h-2l-7-7-1-2-1-2-1-1-2-1c-3-1-6 1-9 1h-3l-3 1-3-1h-2l-1 1c-2 3-1 6-3 8l-2 1-3-1h-2c-2-2-5-3-8 0h-4l-1-1h-2l-1 1v12c0 1 0 2 2 2h1l1-1 1-1a8 8 0 0 0 2-3l2-4c1-2 3-3 4-2 3 3 7 3 11 5v2c1 2-1 4-1 6-1 2-3 5-3 8l-2 4h-1l-6 1-3 1-1 1c-2 0-4 3-7 0l-1-2-5-10-1-2-3-12-1-2c2-3 1-7 1-11v-1l1-1 1-1 1-2 3-2v-1c7-4 14-4 22-4h11l3-1h12l6-1v-1c0-2-1-4 1-6z"/><path fill="#02020A" d="M276 191h3c5 0 11-1 16 1l2 2-1 4c-3 4-7 1-10 4l1 1c1 3 3 4 2 7v2l-2 2-1 1-1 1h-1l-2 1c-1 1-3 2-5 1l-2-1-4-2c-9-2-8-3-8-9l-1-1v-1l-1-1h-1l-2-1 2 2 1 2-1 6c-2 3-6 3-5 8v1l-1 3-2 2-2 1-2 1h-2l-2-1a49 49 0 0 0-4 0l-6-4-2-1v-5l3-5c-1 2-4 2-6 6h-1c-4 1-7 1-10 3-2 3-4 0-5-2-1-3-2-6-5-8l-1-3c1-3 2-4 4-5 4-2 5-4 6-8s3-5 7-3l3 1 1 1 1 4c2 1 3 1 4-1v-2c-3-3-2-6-1-9l1-2c1-2 0-5-1-7-1-3 0-4 1-7v-1l2-1 3-1v-1c2-2 1-4 2-6s2-3 5-2c4 4 4 10 5 15 1 2 0 3 2 5v3c-3 3-3 7-3 10l1 1 5 1 6-1c5 0 10 1 15-1z"/><path fill="#03020E" d="M284 349v-2c3-3 1-7 4-10l7-2a44 44 0 0 0 4 0l8-1h2c3-2 6-2 9-1 4 0 7 1 8 6v2l-2 2-2 2h-1l-1 1-1 1-2 4-1 1h-10c-3-1-6-1-7 3 6-1 11 1 17-1 2 0 4-1 4-4v-2l1-2 1-1 4-2h3l6 4h4l2 2a55 55 0 0 0 4 3h3l1-1 1-3-1 1-1 1h-1l-2 1-2-1-2-2-1-1-1-1-1-1v-2l13-7c2-1 4 0 6 1h1l1 1 2 2 1 1 1 1 1 1 2 4v12l-4 4-3 2-4 1-2-1c-4-1-7-1-11 1h-13a77 77 0 0 0-23 0c-5-2-10-2-15-1-5 0-7-2-8-7v-7l1-2z"/><path fill="#030813" d="m341 140 4 1 3 2h1l1 1 5 3 1 1 3 4 1 3 1 6c0 3-2 5-3 7l-1 3-4 3-1 1h-1l-3-4-1-3v-1l-1-1-5 2h-5l-5-5c0-3 2-5 3-7l3-2h-2l-3-1-1-1v-2l-2-1c-3 1-3 3-4 4-4 2-6-2-9-1l-6-2-2 1-4-1c-3 1-3-2-5-3l-1-1c4-5 9-6 14-7 9-2 18-2 28 0l1 1z"/><path fill="#02080E" d="m203 301-14 1c-5 0-6 2-5 6 1 7 4 14 7 20l10 22 1 2c3 12 1 15-11 15h-13c-2-2-1-4 1-4 3-1 5-4 6-7l2-1c2 0 3 1 4 3l2 3c3 2 4 1 5-2 1-4 0-8-4-10l-2-2c0-4-1-7-5-8-3-1-1-4-1-6s0-4-2-5a13 13 0 0 0-5-2c-5 0-8 3-12 2h-2c-1-2-2-2-4-2l-2-2-1-2 1-3c1-2 4-2 4-5 3-3 5-6 9-7 2-1 2-6 3-8 2-3 4-3 6-2 5 2 9 0 11-4h3c4 2 8 3 8 8z"/><path fill="#020204" d="M270 305h-2c-2-1-2-3-1-5v-9c3-2 3-6 4-10 4-1 7-1 7 4v7l2 3h9l3 1c5 3 6 3 9-2l8-7c2-1 5-4 9-2l2 2c0 4 4 5 3 9v4l-2 1c-3 2-4 6-8 5l-1 1c-3 1-3 3-3 5l-1 5-1 2v2c0 2-2 2-3 3l-4 3h-4c-3-1-2-3-1-5 2-4 6-7 3-13-2-4-5-3-8-3-6-1-13-2-20-1z"/><path fill="#020817" d="M355 308v1c-2 1-3 2-5 0-1-2-1-4 1-5 4-3 5-7 4-12-1-3 1-6-2-8-4-6-8-7-13-1l-6 1c-3-1-4-5-8-2l-4 1h-2l-1-2v-4l3-4c-6-1-11-5-17-3l-14-1c-6 0-12-2-13-9-1-6-5-11-5-17l-3-3c-1-2-2-3 0-5h2l10 22c2 5 4 7 10 8 17 0 33 3 50 7l7 3c11 3 13 18 9 26l-1 3-1 2-1 2z"/><path fill="#020204" d="m203 301-7-7 2-1h13c4 0 6-2 6-6v-1l1-1h9c1-1 2 0 3 1l2 1v2c0 3 2 5 5 5 2 0 4 1 6-2 2-5 5-2 9 0 1 4 4 2 7 2a159 159 0 0 0 6 1c3 3 3 5 1 7s-4 2-6 1h-6l-2 1a105 105 0 0 0-35-2c-3-2-7-1-10-1h-4zM189 333c-1 2-4 5 2 4 3-1 4 1 4 4-1 4-1 7 3 9 3 2 2 5 2 9l-3 1c-2 0-2-2-2-3 0-2-1-3-3-4l-2 1-1 1-2 1-1 3c1 4 0 6-5 6-1-1-2 0-3 2h-4l-4-2-1-2c1-2 2-3 0-5l-1-2v-5l1-1a10 10 0 0 0 2-2l1-1 2-1c3-1 6-2 6-6l1-4 3-4c2-1 3-1 5 1z"/><path fill="#040302" d="M339 282c1-5 4-6 9-5 9 3 10 13 8 22l-3 6c-3 2-1 3 2 4v1l-1 1v2l-1 1v1l-1 1-1 1-4 8c-2 5-2 6 4 8v4c-3 4-6 6-12 6h-1c-3-6-1-11 0-17v-2l1-2c1-1 2-2 2-5l1-2c3-1 5-4 5-7l3-8c2-2 2-4 1-7l-1-5-1-2c-1-2-2-2-4-2-2 1-5 1-6-2z"/><path fill="#02080E" d="M171 365c1 0 2 0 3 2h-36c-6 0-13-1-16-9-3-7 0-14 4-21 4-5 10-7 16-8 5-2 5-2 3-8 2-4 3-4 7-1 0 9-3 12-12 14l-6 3c-1 1-2 2-1 3 1 3 0 6-1 9l-1 2-1 1h-1c-4 1-2 4-2 5 1 2 2 2 4 1s3 0 5 1c1 2 2 0 3 0h3c4 3 7 4 11 4h13c2 0 3 0 5 2z"/><path fill="#031013" d="M240 137c-6-4-6-4-2-9 5-6 11-9 17-12 3-1 4 0 5 2 0 2 3 4-1 6-6 3-12 7-16 13h-3z"/><path fill="#040C0F" d="m228 101 1-2c3-2 4 0 5 2l1 1v5l-2 3-8 14c0 1-1 3-3 3-2-1-5 1-6-4l1-3 5-10 1-1 2-4 3-4z"/><path fill="#030813" d="M295 193c-5-2-10 0-16-2l14-1c4 0 5-1 4-6-2-9-3-18-3-28l4-10h1c1 1 3 3 2 4-4 4-2 8-2 12l2 17c1 3 3 4 5 5 3 0 4 1 5 4 0 3 3 3 5 4 0 4 4 5 4 9-2 2-4 1-6 0-1-1-2-3-5-1l-3-2c-1-4-3-5-8-4l-3-1z"/><path fill="#02080E" d="M190 123v-7c0-2-1-6 4-5 4 0 6 1 6 5-1 4 0 7 1 10 0 2 0 4-2 5-5 2-6 2-8-4l-1-4z"/><path fill="#030813" d="m333 190 1 3 2 4v1l1 3-2 1c-2 0-2-2-3-2l-1-1 2 1v2c1 3 0 4-2 6-4 0-5-2-5-4 0-5-3-9-7-12v-13l4-2c3 0 6 0 9-2 2-2 4-1 5 3l-1 2h-2c-2 1-3 2-3 4-1 2-1 4 2 6z"/><path fill="#031013" d="m276 151-7 3c-4 1-7 0-10-3-2-1-2-2 0-3 5-4 11-4 16-6 3 0 3 3 4 5 1 3-1 4-3 4z"/><path fill="#040302" d="M316 228h-6c-2-1-5-1-5-4-1-3-1-5 3-6 2 1 4 2 6 1l5-1 2-2 2-2 2-1 2-3h3l2 1c2 2 5 2 6 5 0 7-3 10-8 11-2 0-2-3-5-2l-6 2-3 1z"/><path fill="#030303" d="M189 155c-2-1-4-3-4-6l3-2 4-2c8-2 16-4 24-2 1 1 2 2 1 4l-2 2-7 4c-3 1-6 1-9-1s-6-2-8 2l-1 1h-1z"/><path fill="#031013" d="m170 142-4-7c-2-3-3-5 1-7s6-1 7 3l1 2c4 6 3 8-5 9z"/><path fill="#020203" d="M286 227h-13l-1-1c-1-1-1 1-2 2l-1 1-3-1-3-2c-1-3-3-5-1-8h12l2 1c3 3 5 3 8-1h4c2 1 3 1 3 3 1 4-3 4-5 6z"/><path fill="#02080E" d="M220 302c4-4 8-4 13-2h8c4 0 7 1 11 3l-32-1z"/><path fill="#030813" d="m324 224 4-5c1-1 2-2 3-1v3c-1 1-3 2-1 4 1 1 3 0 4-1 2-2 3-4 3-7h2c0 7-4 10-10 11h-13l3-2c1-2 3 0 5-2z"/><path fill="#02080E" d="M298 309c4 2 3 5 2 8s-5 5-4 9l1 1v3c-2 2-3 7-8 4 1-6 5-10 7-15l2-10z"/><path fill="#030813" d="M216 144c-6-3-12 0-19 1h-4c11-5 23-5 35 0l-4 2c-3 1-5 0-8-3z"/><path fill="#02080E" d="M270 305c9-3 17 0 26 0 1 0 2 1 2 3-7-2-14-1-21-2l-7-1z"/><path fill="#040302" d="M296 327v-1h4c2 0 2 1 2 3v2l-1 2-1 1-2 1-1 1-1 1c-2 1-4 2-7 1l-1-2 1-2c3 0 4-3 6-5l1-2z"/><path fill="#02080E" d="M254 304c1-2 3-3 5-2 5 1 6 0 5-6v-2h4c3 3 0 7 0 10h-14z"/><path fill="#00131D" d="M351 333c-2 0-6 2-7-1-2-2 1-5 2-8l5-7h1c0 3-2 6-4 9-1 3-1 5 3 7z"/><path fill="#02080E" d="M283 358c2 4 5 5 9 5 5 0 9 0 14 3h-17c-5 0-6-4-6-8z"/><path fill="#030813" d="M252 178c-5-3-3-8-5-12l-2-8c6 5 6 12 7 20zM245 157l-4 4c-2-3-4-6-8-7l-2-2v-4l1-1c6 2 10 5 13 10zM307 222l2 5-12 1-1-2v-3c1-2 2-2 4-1l4-1 3 1z"/><path fill="#030927" d="M171 167c0 6 4 11 2 18-3-5-3-11-2-18z"/><path fill="#040302" d="M333 190h-3c-2 0-4 1-4-1-1-3 1-5 4-5h1l2 6z"/><path fill="#030303" d="M152 321c-2-1-4-2-7 0l-2-4 7-2 2 1 2 1v4h-2z"/><path fill="#020203" d="m330 207 2-5 2-1h2l1 1 1 5c-2 2-4 4-8 3v-3z"/><path fill="#030927" d="M169 195c-6 3-11 1-17 0h17z"/><path fill="#02080E" d="m309 366 1-1c6-1 12-1 19 1h-20z"/><path fill="#020C1B" d="M336 180v-2c2-5 9-7 14-4 0 3-2 3-4 4l-3 1h-2c-2 1-3 2-5 1z"/><path fill="#030813" d="M249 191c-2-2-1-5-1-8-1-2 2-2 4-2 0 4-2 7-3 10z"/><path fill="#020203" d="M339 217h-2c-1-2-4-2-5-5l5-4c2 1 2 2 2 4v5z"/><path fill="#02020A" d="M286 227c0-2 2-4 4-5 1-2 2-2 4-2v6c-1 2-3 2-5 1h-3z"/><path fill="#030813" d="M276 191c-4 4-9 2-15 1l15-1z"/><path fill="#02080E" d="M364 359c2-4 0-8 2-12l1 4 1 6c-1 2-1 3-4 2z"/><path fill="#00131D" d="m194 257-1 5c-3-3-4-7-6-11 3 1 3 5 7 6z"/><path fill="#030813" d="M266 227h3l1 3 3 4-2 1c-6-1-8-4-5-8z"/><path fill="#030927" d="M147 194c-3 3-7 1-11-1l11 1z"/><path fill="#02080E" d="M133 278c1 0 3 1 2 2-1 3 0 6-2 9v-11zM133 292c2 3 4 6 3 11-2-4-3-7-3-11zM288 335l1 3c-2 1-2 2-2 4s0 4-3 5c0-4 2-8 4-12z"/><path fill="#00131D" d="m364 359 3-2c0 4-2 6-6 8v-3l3-3z"/><path fill="#02080E" d="M343 366c2-3 6-3 10-1v1h-11z"/><path fill="#00131D" d="M172 266c-3 2-7 1-11 0h11z"/><path fill="#02080E" d="M137 306c3 2 4 5 5 9-3-2-4-6-5-9z"/><path fill="#030927" d="M125 151c-2-2-6-1-8-5 3 1 6 2 8 5zM134 164c-4-2-4-5-5-9 2 2 4 5 5 9z"/><path fill="#02080E" d="M207 302c3-2 6-3 10 0h-10z"/><path fill="#00131D" d="m339 212-2-3v-7c2 3 2 6 2 10zM351 337v-4l6 4h-6zM289 227l5-1h3v1h-8zM234 101l-4-2c2-2 3 0 4 2zM358 168l2-7c1 3 0 5-2 7zM346 178l3-3h3c-1 2-3 2-6 3z"/><path fill="#030927" d="M177 154c0 2-2 3-3 5 0-2 1-4 3-5z"/><path fill="#00131D" d="M192 264c-1 2-2 2-5 1l5-1zM331 184h-1c0-2 0-4 3-4l-2 4z"/><path fill="#030927" d="M136 172c-2-1-2-3-1-5v5z"/><path fill="#00131D" d="m353 175 4-4-4 4zM350 143l-2 1-3-3 5 2z"/><path fill="#030927" d="m116 145-5-2c2-1 3 0 5 2z"/><path fill="#02020A" d="M270 227c0-2 0-4 3-2l-1 2h-2z"/><path fill="#00131D" d="m228 101-2 4 2-4z"/><path fill="#030813" d="M255 192c-1 2-3 2-5 0h5z"/><path fill="#030927" d="M188 146c0 2-1 2-3 3h-1l4-3z"/><path fill="#030813" d="m228 145 4 1v1c-2 1-3 1-4-1v-1z"/><path fill="#030927" d="m129 155-3-3 3 3z"/><path fill="#00131D" d="M362 341h-1c-2 1-2 0-2-2 1-1 2 0 3 2zM336 180h4-4z"/><path fill="#02080E" d="M361 362v2l-2 1c0-1 0-2 2-3z"/><path fill="#00131D" d="M270 227h2l-1 3-2-3h1z"/><path fill="#02080E" d="M334 366c1-1 2-2 3 0h-3z"/><path fill="#00131D" d="m217 120-1 3 1-3zM336 197l-2-4 2 4zM233 110l1-3-1 3zM357 304c-1-1 0-2 1-3l-1 3zM360 155l-1-3 1 3zM368 351l-2-3 2 3z"/><path fill="#030813" d="M281 227c0-1 1-2 2 0h-2z"/><path fill="#00131D" d="M235 107v-1 1zM353 366v-1l2 1h-2z"/><path fill="#02080E" d="m284 349-1 2 1-2z"/><path fill="#030927" d="m182 150-2 2 2-2z"/><path fill="#00131D" d="m355 308 1-2-1 2z"/><path fill="#030927" d="m179 152-2 2 2-2z"/><path fill="#00131D" d="m139 271-2 2 2-2zM183 242l1 2-1-2z"/><path fill="#030927" d="m173 187 2 2-2-2z"/><path fill="#00131D" d="M343 179z"/><path fill="#020817" d="M353 314v-1 1z"/><path fill="#00131D" d="m135 275-1 1 1-1z"/><path fill="#030927" d="M177 194z"/><path fill="#00131D" d="m177 265-2 1 2-1zM235 102zM223 109l-1 1 1-1zM341 140h-1 1zM358 338h1-1z"/><path fill="#030813" d="m272 227 1-2v1l-1 1z"/><path fill="#00131D" d="m184 246 1 1-1-1zM356 148l-1-1 1 1zM364 343h-1 1zM354 311l1-1-1 1zM134 276v1-1zM336 199v-1s0 1 0 0zM140 270c-1 0 0 0 0 0z"/><path fill="#030927" d="m173 161-1 1 1-1zM174 195v1l-1-1h1z"/><path fill="#00131D" d="m352 316 1-1-1 1z"/><path fill="#020817" d="M352 317h-1l1-1v1z"/><path fill="#030927" d="M172 162v1-1z"/><path fill="#3533C5" d="M190 155c3-4 6-6 9-2h11c1 2 1 3-1 4l5-2c-1 0-3-1-3-3 4-4 8-2 13-2l4 3 1 2-3 2-1 1-3 1-5 3-7 1h-2l-2 4-1 2c-1 3-3 5 1 7h4c4 0 7-2 10 2 0 2-1 3-2 3-6-1-10 5-16 3-2 0-3 1-3 3-1 6 1 8 7 10h3l2 1-2-2c-2-5 1-6 4-8l6-1 3-2 1 1h2c1 3 2 5 0 7-4-1-6 0-7 4 0 3-2 5-5 6-2 1-3 2-4 5-3 1-3-2-4-3-2-2-4-3-7-1h-1c-5-1-7-4-9-8l-2-4-1-1-1-1-1-2c0-1-1-3 1-4l1-1 1-3c-1-5 2-8 7-9l2-1c1-2 1-4-1-5s-3-2-2-4c2-2 3-1 5 0l3 2c0 5 0 9-5 12-4 3-4 8-4 12 0-6 2-10 7-15 4-3 2-11-3-12l-3 1c-3-1-2-3-2-6z"/><path fill="#3733E7" d="M121 204c-1 2-2 3-1 5l1 1c2 2 2 4 2 6l1 3c1 2 4 3 2 4-2 2-6 1-6-1-1-5-4-7-8-8-2-1-4-12-2-14 0-1 1-2 3-1 5 2 7-1 8-5s3-4 6 0v5c-2 3-3 4-6 5z"/><path fill="#2D2DA9" d="M127 194c-2-2-4-3-5 0-1 5-4 7-9 6l-3 2c-1 3 1 10 4 12 3 1 5 3 6 6 1 2 2 3 5 3l-4-12c2 0 3 1 3 3 1 7 1 7 8 4l2 2h2l3 2v2c-6 0-11 2-17 0-2 0-4-1-3-4 0-2-2-4-5-4-3-1-4-3-4-6l-2-9c0-3 2-4 5-3 4 2 6 1 7-3 1-3 2-5 5-5 2 0 2 2 2 4z"/><path fill="#3534C9" d="M139 224v-1c-2-3 1-5 1-8l1-2 1-2v-1l2-1v-1l1-4c2-2 4-2 6 0 1 2 1 4-1 6l-5 6c-2 2-3 4 0 6v3h-2l-1-1h-3z"/><path fill="#3432C3" d="M110 180h-1c-4-2-8 0-12-2v-1l1-3 2-1 1 1c3 1 6-1 9 1l1 1h4l2-1h1l1-1 4-2h3c2 1 2 3 1 5v1c-2 2-5 2-8 3l-3 1h-2c-1 0-3 0-4-2z"/><path fill="#3332BB" d="M190 239c-1-2-1-3 1-4v-7c3-2 5 1 7 2 2 5 1 10 2 15v7l-1 1c-4-4-7-9-9-14zM176 218h-4l-2 1c-2-1-2-3-2-4 2-1 1-3 1-5v-3c0-4 0-5 6-3v1c-1 6-1 6 6 7l1 1h2l1 3v1c-2 2-5 0-7 2l-2-1z"/><path fill="#3733D6" d="m120 158-1 1c-2 2-5 3-6 6v3l-2 1-3-4c-1-2-4-4-2-7 1-2 3-1 5-2l1-1c4-2 4-1 8 3z"/><path fill="#3834F3" d="M141 215c1 3 1 5-2 8h-6c-1 0-3 1-3-1-1-2 1-2 2-4l2-1h3a211 211 0 0 0 4-2z"/><path fill="#070634" d="m190 239 8 14c2 1 2 1 1 3-4-5-9-10-9-17z"/><path fill="#030927" d="M186 192c2 0 3 2 3 4l7 7 1 2c-3 2-4-1-5-2-4-3-5-7-6-11z"/><path fill="#070634" d="M169 218h3l-3 5c-2 3-4 3-7 2s-1-3-1-5l3-5 2 4h2l1-1zM175 204c-5-1-6 2-5 6l-2 2c0-4 1-7-3-10 3 3 7-4 10 2z"/><path fill="#040302" d="m185 216-2-2-1-1v-1c3-1 6-1 9 1 2 4-1 5-4 5l-2-2z"/><path fill="#3633FB" d="m168 212 2-1c4 3 4 3-1 7-1 1-1 2-3 2l-1-5s-1 0 0 0l3-2v-1z"/><path fill="#070634" d="M186 217c3 0 4-1 5-4l7 1c1 0 2 0 2-2h2l1 2v2c0 2-1 2-2 3-3-1-5-2-7 0l-1 1-5-1h-2v-2z"/><path fill="#030927" d="M193 171c-5 2-6 7-8 12 0-5-1-10 5-12h3z"/><path fill="#3532B5" d="M92 156h1v5h-1l-1 1-1 1-1 1c-2 1-3 1-4-2 1-4 4-5 7-6z"/><path fill="#030927" d="M190 155c0 2 0 4 2 6 1 3 6 4 3 9l-1-3c-5-2-5-7-5-12h1z"/><path fill="#070634" d="m192 229-1 1-10-7c2-2 4 0 7-1h1l2 1 1 1 1 3-1 2z"/><path fill="#3434AF" d="m99 155-1-3c1-2 3-1 4-2 1 4 4 8 2 12h-2l-1-2-1-2v-2l-1-1z"/><path fill="#04042E" d="m92 155-6 6v1c-1-5 1-7 6-7zM97 178c4 1 8-1 11 1-3 0-7 3-11-1z"/><path fill="#3733D6" d="m165 215 1 5 1 1v1c0 1-1 2-3 2l-1-2 1-7h1z"/><path fill="#2D2A9F" d="M85 162h1l2 2-3 4c-2-2 0-4 0-6z"/><path fill="#070634" d="M182 212v1l-3-1c-6 1-6-2-4-7-1 5 3 6 7 7z"/><path fill="#04042E" d="M103 151h-5l7-2c1 0 4 0 3 3h-3l-2-1zM113 165c-1-4 2-5 6-6-1 3-3 4-6 6z"/><path fill="#2D2DA9" d="m111 169 2-1v4l-1 1v4h-1c-4-3-4-3 0-8z"/><path fill="#04042E" d="M120 158c-2-2-4-4-7-3 3-3 6-2 7 3zM119 181c2-2 5-2 8-3-1 4-5 3-8 3zM102 173c0-3 4-4 3-7v-1c2 0 3 1 3 3l1 2-1 2a42 42 0 0 0-2 2h-4v-1z"/><path fill="#3332BB" d="M199 256v-3c1-1 2-2 3-1 0 3 2 5 0 7l-2-1-1-2zM189 224l-8-1-1-2c4-2 7-2 9 3z"/><path fill="#3533C5" d="M197 205v-2c4-1 5-1 5 4l-2 1-3-3z"/><path fill="#2D2DA9" d="M121 205c1-3 3-3 5-5 1 3-3 3-5 5z"/><path fill="#3935C1" d="M145 225v-2l6 1-6 1z"/><path fill="#04042E" d="M93 161v-5c2 1 4 3 0 5zM110 181c1-1 2 0 4 1-2 2-3 1-4-1z"/><path fill="#3434AF" d="M105 152h2v5c-4 0-4-2-2-5z"/><path fill="#04042E" d="M127 177v-4c2 0 3 0 0 4zM113 172v-4c3 1 4 2 0 4zM112 177v-2h5l-1 2h-4zM116 182l3-1c0 1 0 3-3 1z"/><path fill="#0C0C57" d="M199 208h2l2 2-1 2h-1l-2-4z"/><path fill="#04042E" d="m123 172-4 2c1-2 2-3 4-2zM107 157v-2l4 1c-1 1-1 2-3 2l-1-1z"/><path fill="#2D2DA9" d="M145 204v4-4z"/><path fill="#070634" d="m176 219 2-1 1 1v2l-3-2z"/><path fill="#04042E" d="M102 162h1c1 0 2 1 2 3-2 0-3-1-3-3z"/><path fill="#070634" d="M191 231c2 1 2 2 0 3v-3z"/><path fill="#04042E" d="m98 174-1 3c-1-1 0-2 1-3zM100 158l1 2-1-2z"/><path fill="#3733D6" d="M167 212c1 2 0 2-2 3l2-3z"/><path fill="#2D2DA9" d="m141 214-1 1 1-2v1z"/><path fill="#030927" d="m183 188 1 2-1-2z"/><path fill="#2D2DA9" d="M137 217h-3 3z"/><path fill="#3332BB" d="M179 221v-2l1 1v1h-1z"/><path fill="#2D2A9F" d="M89 163h1-1z"/><path fill="#3935C1" d="m142 224 1 1h-1v-1z"/><path fill="#2D2DA9" d="M142 224v1h-1l1-1z"/><path fill="#030927" d="m184 190 1 1-1-1zM185 183l-1 1 1-1z"/><path fill="#070634" d="M175 205v-1 1z"/><path fill="#2D2DA9" d="M121 210h-1 1zM144 209l-1 1 1-1zM142 211z"/><path fill="#04042E" d="m119 174-1 1 1-1z"/><path fill="#3432C3" d="m101 174 1-1c0-1 0 0 0 0l-1 1z"/><path fill="#04042E" d="m112 173 1-1-1 1z"/><path fill="#2D2A9F" d="m91 162 1-1-1 1z"/><path fill="#04042E" d="m99 155 1 1-1-1z"/><path fill="#3733F0" d="m148 284 1 1c2 1 2-1 3-1l1-1h2l3 1h2v1l3 1 1-1 3-2 1-2c0-5 2-6 7-6h2l3-1h15l1 1c1 1 0 0 0 0l1 4-1 2c0 3 3 5 6 5l1 1c2 0 4 2 6 0l3-6 1-1 3-1 3-1 2 2-1 4c-2 1-3 2-3 5l-1 1c-9 4-17 3-26 0-2 0-3-1-2-3-1-3 1-5-3-6h-1l-5 1-1 1-1 1a15 15 0 0 1 0 3l-2 5c0 2-1 4-4 4h-1l-2-1-1-1h-1l-2-1-6-2-5-2c-3 3-1 6-3 9v2c-1 0 0 0 0 0l-1 1-2 1-2-1-2-1v-7a19 19 0 0 1-1-3v-2l-1-2c1-3 3-2 6-2 0 1 0 0 0 0h1z"/><path fill="#3734DF" d="M220 281v-2l1-2c5-5 5-6-2-10h-2l-3-1-2 1c-2 1-4 1-4-1-1-2 1-2 3-4l4-1h11l1-6c2-3 4-5 8-5 4 2 1 4 0 7v1l-1 6 1 2c1 3 2 6-1 9v5l1 1 1 1 2 1h4l2-1c4 0 7 2 10 3 3 4 8 3 11 6l-2 4v1h-3l-1-1h-1l-1-1h-3l-6-4c-2 0-4-1-5 2-3 5-8 4-11-1l-1-2h-1l-1-1-2-2-4-2-2-2-1-1z"/><path fill="#050637" d="m165 291 2 1h2l1 2v1c1 1 2 2 1 3v3l-5 2-1-1 1-5v-2c-3-1-7-1-10-4-2-1-3 0-3 2 0 1 0 3-2 4-1-3-1-6 1-9l7 1 6 2z"/><path fill="#070738" d="m236 251-8 3c1-3 1-7-3-10l1-2c4-1 8 0 11 4 1 2 1 3-1 5z"/><path fill="#3834F6" d="M225 243h-4c-2 0-3 2-5 4h-12l-1-1c0-3 2-4 5-5l1-1 4-2c3-2 5 0 8-1l2 1c1 1 3 2 2 4v1z"/><path fill="#050637" d="M145 292v8l1 1-1 1c-3 0-4-2-4-4v-9h2c1 1 2 1 2 3z"/><path fill="#2D2DA9" d="M219 268c2 0 5 0 6 3 1 4-2 6-5 7l-3 1 2-2c6-3 6-5 0-9zM211 262c1 2-5 3 0 5-1 2-3 4-5 1-2-2 0-3 2-5l3-1z"/><path fill="#3533C5" d="M176 275c-4 1-7 2-6 7l-2 2-1-7v-1c1-2 3-2 5-2l3 1h1z"/><path fill="#050637" d="m155 284-1 1h-4c3-4 6-3 10-1l-1 1-4-1z"/><path fill="#070738" d="M201 259c2-2 1-4 1-7-1-1-1-2 1-3h1v8c1 2 0 3-3 2z"/><path fill="#3532B5" d="m154 318-2-1-1-2 1-2h9v2c-2 2-4 2-7 3z"/><path fill="#050637" d="M167 277c2 2 1 4 0 7l-3 1c2-2 2-5 3-8zM202 286c-3 0-7 1-6-5l6 5z"/><path fill="#3733D6" d="M204 249h-1v-2c4 0 7-2 11 0h-4l-1 1h-1l-3 1h-1z"/><path fill="#050637" d="M162 310c1-3-2-6 2-8h1l1 1c1 3-1 5-2 7h-2z"/><path fill="#3733D6" d="M216 247c0-3 1-5 5-4l-3 3-1 1h-1z"/><path fill="#2D2DA9" d="M212 280c0 2 0 5-3 7v-1l1-4v-1l1-1h1z"/><path fill="#3935C1" d="m152 288-1 9v1h-1c0-3-1-7 2-10z"/><path fill="#3434AF" d="m147 284-5 2h-1v-3c1-3 2-1 4 0l2 1z"/><path fill="#030316" d="M203 283c-2-2-1-2 0-2 1-1 2 0 2 1l-2 1z"/><path fill="#050637" d="m191 274-10 1c2-2 6-3 10-1z"/><path fill="#070738" d="m227 255-1 5c-1-1-1-3 1-5z"/><path fill="#050637" d="m172 274-4 1c0-2 2-2 4-1zM208 286l1 1c-1 2-3 2-5 1l4-2zM213 280h-2c0-2 0-4 3-2l-1 2z"/><path fill="#070738" d="M159 313c-2 2-4 1-7 0h7z"/><path fill="#050637" d="m197 279-1-4c2 1 2 2 1 4zM147 301h1c0 2-1 3-3 1l2-1zM145 283h-3c0-3 2-3 3 0zM161 313h-1c0-1 0-2 2-3 1 2 1 3-1 3z"/><path fill="#3533C5" d="M163 285c0 2-2 2-3 0h3zM150 285h3c-1 1-2 2-4 0l1-1z"/><path fill="#070738" d="M225 261c-1 2-3 1-5 1l5-1z"/><path fill="#030316" d="M166 295c1 0 2 1 0 2v-2z"/><path fill="#070738" d="m151 315 1 2-2-2h1z"/><path fill="#2D2DA9" d="m214 267 3-1-3 1z"/><path fill="#070738" d="M212 247h4-4zM205 249l3-1-3 1z"/><path fill="#2D2DA9" d="m213 280 1-1h2l-3 1z"/><path fill="#050637" d="M176 275h-1l2-1-1 1zM195 274h-2 2z"/><path fill="#070738" d="m217 260-2 1 2-1z"/><path fill="#3434AF" d="M143 289h-2v-1l2 1z"/><path fill="#050637" d="M150 298h1l-1 2v-2z"/><path fill="#070738" d="m217 247 1-1-1 1zM209 248l1-1-1 1z"/><path fill="#050637" d="M148 284h-1 1zM149 301v-1 1zM210 281v1-1zM141 285v1-1zM196 275l-1-1 1 1z"/><path fill="#3733D6" d="m225 243-3-3c2-4 6-6 10-4l4-1c1-2 0-3-2-4l-10-6-1-2c0-3 4-2 4-5l1-1c2 0 3-6 5 0v4h1l7 4h3l2 1h2l2-1 2-2 1-2v-1c1-1 2-2 3-1 2 1 2 2 2 4 1 1 0 3-1 4v1c-2 2-4 2-4 4v7c0 2-2 4-3 5h-4l-2-1v-3 1l-1 3c-2 5-3 5-7 2-3-3-7-2-11-3z"/><path fill="#3634E3" d="M288 219h-6l-1-2 1-2 1-1c2 0 2-1 3-2l1-1h1c2-3 0-5-3-7l-2-1h-1c-2 0-2-1-2-2l1-1 6-1c5 1 9-1 13-3l4 1c3 1 5 3 3 6l-1 2-1 1h-1l-1 1v2l2 4v3c0 3-1 4-5 4-1 1-2 0-3-1-2-2-4-1-6 0h-3z"/><path fill="#3633FB" d="M228 218c1 0 2 0 2 2-1 3-3 2-6 2l-1 3v2l-5 4-4 1h-3l-9-5c-1-2 1-3 3-4l2-1v-2c1-3 0-6-3-8l-1-1v-1l-2-2c0-2 0-5-4-5 0-2 0-3 2-3 5 0 8 2 10 8l1 2 4 8c1 4 3 5 5 2 3-2 6-2 9-2z"/><path fill="#3834F3" d="M220 180c-3-4-7-3-10-2l-2-1c0-4 3-4 6-4l10-1h1c2-1 4-1 6 1l1 5c2 3 2 5 0 8-1 1-2 4-1 6 2 1 3 1 3 3-2 4-3 4-7 1l-2-1v-2c1-2-1-4-1-6l-3-4-1-1v-2z"/><path fill="#020204" d="M305 199h-4c-2-1-4 1-6-1v-5l3-2c6-3 9-1 9 6l-2 2z"/><path fill="#3434AF" d="M265 205c-2 6-2 6 6 8l1 1-1 1-1 1-2 1h-2l-4-2-2-5v-3l-1-3-4-1h-1c0-2 1-1 2-2h8c2 0 2 0 2 2l-1 2z"/><path fill="#2D2A9F" d="M233 217c-1-3-3 0-5 0l9-10c1 0 2-2 4-1 1 1 0 3-1 4l-7 7z"/><path fill="#3532B5" d="M231 175c-2-2-3-2-5-2h-2l-1-3 2-4 4-4 1-1 1-1 4-1 2 1 4 7-1 1-4 1h-2c-1 0-2 0-2 2v3l-1 1z"/><path fill="#3533C5" d="m228 218-9 4c-2 2-5 0-6-2l-3-10c3 2 4 4 4 7 1 4 2 5 5 2 2-2 5-2 8-2l1 1z"/><path fill="#0B0C4D" d="m295 197 6 2c-6 2-11 0-17 1-1 0-4-1-3 2-1 1-2 1-2-1l2-2 13-1 1-1zM282 215v3l1 1-2 2h-2l-4-1-12-1c-1 1-3 3-6 2v-4l4-1h4l11 1 6-2z"/><path fill="#3834F6" d="M232 171c-2 0-4 0-3-2 0-2 2-3 4-4h3c1 2-1 2-2 4v1l-2 1z"/><path fill="#3533C5" d="M226 195c2 0 4 3 7 0h2c2 2 1 4-1 5s-5 2-7-1l-1-3v-1z"/><path fill="#030927" d="M227 199c4 2 7 2 8-4 3 2 2 4-1 5-2 2-5 4-7-1zM235 195h-2l-2-2c-3-3-2-5 1-7h1c-1 3 0 6 2 9z"/><path fill="#2D2A9F" d="m256 219-3 1c0-3 1-6 4-8h2v2l-1 2-1 2-1 1z"/><path fill="#030927" d="M233 177c3 2 6 4 1 8h-1c1-3 0-5-1-7l1-1zM241 167l-4-5c1-2 2-2 4-1v6z"/><path fill="#0B0C4D" d="M285 204c5 1 6 3 3 7 1-3-2-4-3-7z"/><path fill="#030927" d="m231 172 3-2-1 6v1c-2 1-2 0-2-2v-3z"/><path fill="#3733F0" d="m259 204 1-1h3c1 2-1 3-3 3l-1-2z"/><path fill="#2D2A9F" d="M241 224c-2 0-5 0-7-2l7 2zM256 201l-2 2c-1 0-3 0-2-1 0-2 2-1 4-1zM260 206v4c1 1 0 2-1 2h-1l2-6z"/><path fill="#030927" d="m236 169 4-1c-1 2-2 2-4 1z"/><path fill="#0B0C4D" d="m271 215 1-2 3 2v2l-3-1-1-1z"/><path fill="#2D2A9F" d="m287 212-3 2 1-2h2zM261 201z"/><path fill="#030813" d="M295 197v-2 2z"/><path fill="#2D2A9F" d="m253 221-1 2 1-2z"/><path fill="#0B0C4D" d="m275 216 2 1h-2v-1zM287 212h-2l2-1v1z"/><path fill="#2D2A9F" d="m265 205 1-2-1 2zM244 225h-1 1zM247 226h-1 1zM250 225l-1 1 1-1zM233 221z"/><path fill="#030927" d="m234 185-1 1 1-1z"/><path fill="#2D2A9F" d="M264 201h-1 1zM254 203h1-1z"/><path fill="#0B0C4D" d="M282 203h1-1zM283 214l-1 1 1-1z"/><path fill="#030927" d="M226 195v1l-1-1h1z"/><path fill="#3332BB" d="M316 350c0-2 0-3 2-5 2 0 2 2 3 4v1c1 7 1 8-8 7-6 0-11-1-17 1-1 0-4 1-4-2 0-2 2-2 3-2h1c6-5 12-4 19-3 0 4-1 4-6 2 5 3 7 2 7-3z"/><path fill="#3834ED" d="M321 349c-2 0-3-1-3-4v-1l1-1 1-1h1l1-1h2l1-1v-5c-1-2-1-3 1-5l1-1 4-1 1 1c2 2 2 4 2 7v2l-1 3c-1 2-1 4-4 4l-2 1c-1-1-2 0-3 1h-1l-2 2zM341 346h1l1 2 1 1h3v-1l1-1c1-1 1-3 4-2l1 2-2 4c-2 2 0 4-3 6l-3-2-1-1h-1l-3-3-1-2h-5c-1-1-2-3-1-4 2-2 4-2 6 0h1l1 1z"/><path fill="#3432C3" d="m298 333 1-1h2c5 0 5 0 7-6 3-2 5 1 8 2l2 4c-3 2-7 0-9 4h-1l-9 1h-2v-2l1-2z"/><path fill="#3834F6" d="M316 350c2 1 4 2 3 4 0 3-2 2-4 2-4 1-8-4-12-2 2-3 4-3 7-2h5l1-2z"/><path fill="#0C0C57" d="M309 336c1-4 4-4 8-4l1-1c3 0 6 1 8 4v5h-1c-2-5-6-7-12-6l-4 2z"/><path fill="#2D2DA9" d="M340 345c-2 1-6-2-6 3-2 1-3-2-5-2l2-6h2l1 1c2 1 4 0 5 2l1 2zM352 344l-3 3c-1-2-2-3 0-4 1-1 2 0 3 1zM348 357l2-6c0 2 2 5-2 6z"/><path fill="#02080E" d="M358 339v-1l3 3c-2 2-3 1-3-2z"/><path fill="#0C0C57" d="m299 337 9-1-9 1z"/><path fill="#2D2A9F" d="m340 350 3 4c-2 0-2-2-3-3v-1z"/><path fill="#2D2DA9" d="m353 347-1-2c2 0 2 1 1 2z"/><path fill="#0C0C57" d="M297 335v1l-1 1 1-2z"/><path fill="#3332BB" d="m321 349 2-2-2 2z"/><path fill="#2D2DA9" d="m324 347 2-1-2 1z"/><path fill="#3532B5" d="M347 349h-3 3z"/><path fill="#2D2DA9" d="m343 348-1-1 1 1z"/><path fill="#0C0C57" d="M322 341v1h-2l2-1z"/><path fill="#2D2DA9" d="m340 351-1-1 1 1z"/><path fill="#3332BB" d="M324 340h2l-1 1-1-1z"/><path fill="#2D2DA9" d="M348 347v1-1zM341 346h-1 1z"/><path fill="#0C0C57" d="M318 343v1-1z"/><path fill="#2D2A9F" d="M344 355h1-1z"/><path fill="#030303" d="M309 189c-1-3-5-2-7-3-1-2-3-2-3-5 0-8-3-15-3-24 0-4 3-6 3-11 2 0 3 1 5 3l1 2v2c-3 1-5 2-3 5 2 2 4 2 6 0l6-5h3l3 3 1 3c4 3 2 5-1 7l-1 1c-3 4-6 6-12 6v3l2 2 3 2h1l1 4c1 2-1 3-2 5l-1 1-2-1z"/><path fill="#040302" d="M351 175h-2c-4 0-9 1-13 3-1 0-1-3-3-1s-5 1-9 2v-2c2-2 4-5 7-6l8-3 3-1 6-2 1 1v1l1 2 1 6z"/><path fill="#3332BB" d="M317 155h-3l-3 1-3 3c-2 2-4 2-6 0-1-2-1-5 2-7l3-3h3c2 0 4 2 6 0 4-2 5 1 8 3l2 1v4c-2 2-3 1-5 0l-4-2z"/><path fill="#3733E7" d="M325 157v-3l1-2 1-2 2-3 3 1c2 1 1 1 1 3v1l1 1 2 1v3l-4 4h-1l-1 2-1 1-4-1v-6z"/><path fill="#3432C3" d="m342 168-1 2c-2 1-5 2-8 1h-1c-3-1-6-1-8-3 0-3 3-3 5-5 3-1 4 3 7 3l5 1 1 1z"/><path fill="#3532B5" d="m337 157-2-3v-1l3-4h2c1 0 2 0 1 2l-2 3-2 3z"/><path fill="#060749" d="M327 153h-2l-1-1c1-2 1-5 5-5v4l-2 2z"/><path fill="#020C1B" d="m342 168-1-1 7-4 1 1v1l-1 1-6 2z"/><path fill="#060749" d="M336 166c-3 2-3-1-5-2l-1-2 2-1c0 2 2 3 4 5z"/><path fill="#050637" d="M316 149c-1 3-4 2-6 0h6z"/><path fill="#0B0C4D" d="M349 154c-2 0-3-1-2-2h1c1 0 2 1 1 2z"/><path fill="#0C0C57" d="M348 165v-2h2c1 1 0 2-1 3h-1v-1z"/><path fill="#060749" d="M335 153v1l-1 1-1 1-1-4 3 1z"/><path fill="#050637" d="m307 149-3 3v-3h3z"/><path fill="#060749" d="M338 149c0 2-2 3-3 4 0-2 1-3 3-4zM339 154c0-1 0-2 2-3l-2 3z"/><path fill="#020C1B" d="m350 169-1-2 1 2z"/><path fill="#060749" d="M333 151v-3 3zM340 149h-1 1z"/><path fill="#00131D" d="M348 144z"/><path fill="#020204" d="M193 294c-1 5-6 8-11 6-2 0-3-2-5-1s-3 0-3-3v-3l1-1 1-1 1-4c0-2 0-3 2-3l4-3c6-1 6 0 5 5v4l2 2 3 2z"/><path fill="#05063A" d="M193 294h-3l-3-2v-6c1-4-1-4-4-4v-1l1-1c5-1 6-1 6 5v4c8 4 17 4 26 0l1-2c1 5-1 7-6 7a1114 1114 0 0 0-15 0h-3z"/><path fill="#3834CF" d="m183 337-2 3-4 5a13 13 0 0 1-3 2l-2 2h-4l-1-1c-1-3 0-5 1-7v-2l1-1 1-1 6-1c2 0 3-1 2-3s-2-5-1-7l2-1h1l4 4v3l-1 5z"/><path fill="#04042E" d="M175 295c0 1 0 3 2 4-1 7-6 11-11 16h-1v-4l1-3 1-2 2-2h1l1-2 1-3c0-2 1-3 3-4z"/><path fill="#040302" d="M196 359h4c1 4 0 6-4 6-2-1-5 1-7-2l5-4h2z"/><path fill="#3434AF" d="M187 356v-3c-1-2 2-2 3-3h2c3 2 3 4 2 7-1 2-1 2-3 2l-4-3z"/><path fill="#040302" d="m183 332-1-2v-2l2-3c5 0 5 4 5 8h-4l-2-1z"/><path fill="#070738" d="m179 324-1 2-2 3h-9l-1-1c3-2 8-1 10-6 1-2 2 1 3 2z"/><path fill="#3935C1" d="M166 327v1c-2 2-3 2-5 2l-3-1-1-5 3-1 2 1c1 1 3 1 3 3h1z"/><path fill="#070738" d="M166 327c-2 0-3-1-4-3l6-1-2 4z"/><path fill="#020204" d="m191 359 2-1 2 1c-1 2-3 3-6 4l2-4z"/><path fill="#3734DF" d="m160 323-2 1c-3 0-4-1-4-4l4-2c2 1 1 2 2 4v1z"/><path fill="#04042E" d="M165 315c0 2-2 4-5 4l-1-1 2-2c1-1 2-2 4-1z"/><path fill="#05063F" d="m183 327-1 2-2-3 1-1 2 2z"/><path fill="#030316" d="m183 327-1-2h2l-1 2z"/><path fill="#070738" d="m160 322-1-3h1v3z"/><path fill="#040423" d="m316 329-8-2c-2 1-3 0-4-1l-1-3 2-3 3-2v-2l1-2c3-5 8-6 13-3 3 2 5 4 9 5 2 1 3 2 3 5-3 3-3 7-7 9l-4 2-3-2-3-1h-1z"/><path fill="#3733E7" d="m320 280 1 1 1 1 3 1 6 1h15c4 1 5 3 5 6s-2 4-5 3h-5l-3-2c-2-1-4 0-5 2v4l-1 2-3 2-3 3-1 1h-1l-3-2v-3l1-2 1-1v-4l-4-5-1-1c-3-1-3-3-5-5-2-3-2-5 1-6 2-1 5 0 5 4z"/><path fill="#3534C9" d="m290 298-1-2c-2-2-5-2-7-3l-4-3v-2l7-4 3 1c0 3 0 5 3 6-2-1-4-2-2-5 3-2 6 1 10 0l7-2 2 1c0 4-1 6-5 7l-2 2c-1 7-6 5-11 4z"/><path fill="#040423" d="M290 298h8c1-6 9-6 10-13v-3l1-2c2-1 4 0 6 1l2 5c-3 1-3 1-3 6-2 0-2-1-2-2-1-1-2-2-3-1-1 3-5 4-6 6-4 5-7 6-13 3zM278 289c2 2 5 2 7 3s3 1 4 4l-6 2c-2 1-3 1-5-2 1-1 1-3-1-4l-1-3h2z"/><path fill="#030303" d="M272 283c2 4 0 6-4 8h-1l-1-4c0-7 1-7 6-4z"/><path fill="#040423" d="M272 283c-4-1-5 0-5 4h-1c-2-1-2-2-2-3 0-3 1-5 3-5 4-1 8-1 13 1l1 4v2l-1 1h-3c0-3 0-6-5-4zM324 297h-2c1-3-3-5-3-9 3 1 4 2 6 5v2l-1 2zM312 305l1-2c3 1 4-2 7-3l1 3c-1 4-4 4-7 4l-2-2z"/><path fill="#0C0C57" d="m303 323 2 1-1 6-2 1-2-5 3-3z"/><path fill="#040423" d="M307 312c-1-3-1-6 4-7l1 2-1 2-1 3h-3z"/><path fill="#020203" d="M277 292c2 0 4 0 4 2s-1 2-3 2l-1-4z"/><path fill="#2D2A9F" d="m307 313 1-1c2 1 1 3 1 5s-2 3-4 3v-1l1-2 1-4z"/><path fill="#040423" d="M267 291h1v3l-3 1-1-3 1-1h2z"/><path fill="#040302" d="M277 287h1l1 1v1h-3l1-2z"/><path fill="#2D2A9F" d="M311 307v-1l1-1 1 1c0 2-1 2-2 1z"/><path fill="#040423" d="M322 298v1h-1l1-1zM320 300l1-1v1h-1zM306 317l-1 1 1-1z"/><path fill="#020203" d="M271 239c2 1 3 3 4 6 2 6 4 13 8 19 1 3 5 3 9 3l13 1 6 2c2 0 5 0 6 3l-2 2-3 1h-1l-2 1-3 1-2 1-1 2v1l-1 1h-1c-5 4-8 4-13 2-1-1-3-2-2-4 0-2 0-4-2-6l-1-1c-3-3-5-7-10-4h-5c-1-3-1-5-4-6-2 0-2-2-1-4l1-3 1-2 1-2c3-1 4-2 3-5l-1-6c0-2 0-4 3-3z"/><path fill="#030303" d="m271 239-2 4c-2 1-3-1-6-2l-1-1c-2-2-6-1-9-3v-1c-4-5-4-6 2-9l4-2c2-2 3-2 6 0l1 2c-1 4 3 5 4 8l1 4z"/><path fill="#040302" d="M316 274c-1-2-4-2-6-3-2 0-4 0-5-3 8-1 14 4 22 3l2 1-1 2c-2 2-5 2-8 3h-1l-1-1 1-1-3-1z"/><path fill="#05063F" d="m324 284-1-1-1-1 3-1c3-1 5 0 8 2l6-1h6c3-1 5 0 6 3v1c-2 1-3-2-5-1h-1c-1 3-3 1-4 1-3-1-4-2-7-1h-3c-2 1-4-1-7-1z"/><path fill="#3332BB" d="m319 276 1 1v3l-3-2h-3c-1 1 0 2 1 3l-5 1v1c-2 0-2 1-2 2h-1c-3-1-2-4-2-6 1-3 4-2 6-3h8z"/><path fill="#020203" d="M339 274c1 2-1 3-2 3-2 1-5 2-5 0-1-3 2-2 3-3h4z"/><path fill="#040302" d="M333 283c-3 0-5 0-8-2 3-3 6-3 8 2z"/><path fill="#3332BB" d="m322 282 1 1-2-1h1z"/><path fill="#05063A" d="M231 290c2-1 3 1 4 3 2 1 5 2 6-1 1-5 3-4 6-3l8 3c0 2-2 2-4 1-3-1-6-3-8 2-1 3-5 1-7 1-3 0-5-3-5-6z"/><path fill="#02080E" d="m251 293 4-1 3 1 1 1 1 1v1l-4 1c-3 2-5 0-5-4z"/><path fill="#05063A" d="M224 281c2 1 2 3 3 5h-6c-1-3 1-3 3-5z"/><path fill="#02080E" d="M224 281c0 2-2 3-3 5h-2c-1-2 0-3 2-5h3z"/><path fill="#3935C1" d="m218 287-2 2c0-2 0-4 2-6v4z"/><path fill="#05063A" d="M218 286v-3l2-2h1l-2 5h-1zM260 296h3c-1 2-2 2-3 0z"/><path fill="#2D2A9F" d="M265 292v3l-1 1h-1l1-3 1-1z"/><path fill="#02080E" d="M199 294h2-2z"/><path fill="#05063A" d="m229 288 1 1-1-1z"/><path fill="#020203" d="M171 365h-23c-3 0-6-1-6-5l-1-2v-3l-1-1 2-5v-1l5-1 4 2c4-1 7 0 11 2v1c1 4 4 5 7 6l2 4v3z"/><path fill="#3733D6" d="M143 354v4l-5 1-4-1h-4c-1-2-2-4 0-6v-1c4-2 6-5 7-9l2-1c2-1 5-1 6-5l1-1h7l2 1v1l1 5 4 2h2l2 3h3l1 1h5l-1 2-1 1-1 5-3 1-3-1-1-1-1-1-2-3c-3-2-8-1-12-4-1-1-3 1-5 2v5z"/><path fill="#070738" d="m173 347 1-1 1-2 6-4c0 5-2 7-7 8l-1-1z"/><path fill="#02080E" d="m195 359-2-1-1-7c4 0 5 3 4 8h-1z"/><path fill="#03020E" d="m171 362-2-3v-1h3l4 2c0 2-3 2-5 2z"/><path fill="#02080E" d="m190 350-3 3c-1 0-2-1-1-2 1-2 2-1 4-1z"/><path fill="#3434AF" d="M166 356h4v2c-2 1-3 1-4-2z"/><path fill="#05063F" d="m183 332 1 1-1 4v-5z"/><path fill="#2D2DA9" d="m173 347 1 1h-2l1-1z"/><path fill="#05063F" d="m171 351 1-1-1 1zM172 350l1-1-1 1z"/><path fill="#03020E" d="M339 343c-2 1-4 2-6 0l-1-4v-1l1-1v-3l1-5 2-4 3 1v17z"/><path fill="#2D2DA9" d="M343 316v1l-2 2c-3-1-1-4-2-5v-3l1-3v-2l2-5 1-2h2c5-1 6 0 4 5-1 4-1 8-6 12z"/><path fill="#020817" d="m343 316 5-13c1-2 0-3-3-3-3-4 2-3 3-5l2-2h2c2 5-4 20-9 23zM340 318l2-1c1 2 0 4-1 6l-3-1v-4h2z"/><path fill="#0C0C57" d="M339 326h-2c-1 0-3 2-5 0 1-4 3-3 6-3l1 1v2z"/><path fill="#05063F" d="M352 293h-1l-1-5 2-1v6z"/><path fill="#020817" d="M352 287h-1v-2l1 2z"/><path fill="#0C0C57" d="m339 321 1 2-1 1v-3z"/><path fill="#020204" d="M147 336v1l-6 4h-3l-5-2-1-3c2-2 5-4 8-4 6-1 9-5 12-11h1l6 7 2 1 7 1 1 1c7 3 7 4 2 8l-2 1-1 4c-1 4-4 5-6 2-1-2-3-2-5-3-4 0-5-2-3-5v-2h-1c-2-1-4-2-6 0z"/><path fill="#040302" d="M131 357h3l3 1 2 1c0 5-1 7-5 6l-2-2c4-5 0-3-2-2-3 0-4-1-5-3l-1-5c-1-2-2-5 1-6 2-1 2 3 4 4 1 2 0 4 2 6zM138 339l2 1v2l-1 1-3 3c0 3-2 5-6 4 0-3 1-6-1-9-2-2 0-4 3-5l2 1 4 2z"/><path fill="#070738" d="M130 350c5 0 5-5 8-7-2 3 0 10-7 8l-1-1zM139 360l-1-2h4v2h-3zM131 356c-2 0-2-2-2-5h1l1 5z"/><path fill="#020203" d="M309 199c0-1-1-3 1-3 1-1 3 0 4 1 1 2 2 4 5 3l2 1 3 3v1c-2 4-4 4-7 2l-7-5-1-1v-2z"/><path fill="#3432C3" d="M320 201v-1c-2-1-4-4-5-7 4 0 8 4 7 8h-2zM309 189h1c3 0 5 0 5 3v1c-2-2-7 2-6-4z"/><path fill="#0B0C4D" d="M309 199v1c0 3-1 5-5 3 0-1 4-2 1-4l2-2 2 2z"/><path fill="#3432C3" d="M324 205v-1l-2-2 1-1v-2c-1-2-5-3-4-7 6 3 9 8 11 15v3l-1 2-3 3-2 1-1 1-1 2c-3 0-6 2-9 0-1-3 1-3 2-5l3-1 1-1 1-2v-1l4-4z"/><path fill="#020203" d="m325 177-1 2h-4l-1-3 1-3c3-2 4-5 8-4 2 4-1 5-3 8z"/><path fill="#3432C3" d="M320 179c2 4 1 8 0 12-3 1-4-1-4-3l1-10 1-1 2 2z"/><path fill="#040302" d="M332 200h-1c-2-1-3-3-2-5l1-1c2 1 2 3 2 5v1z"/><path fill="#020204" d="M332 200v-1l2 2-2 1v-2z"/><path fill="#020408" d="M307 222h-3l-1-1 1-6 4-3h3l2 1-1 3c0 2-1 2-2 3l-1 1c-1 0-3-1-2 2z"/><path fill="#030813" d="M330 211v-2l7-2v2c-1 1-2 3-5 3l-2-1z"/><path fill="#2D2A9F" d="m309 219 2-2 1-1 1 1c2 3 5 1 8 2l-6 1c-2 2-2 2-6-1z"/><path fill="#020204" d="M324 224c0 3-2 3-5 2 0-3 2-2 5-2z"/><path fill="#030813" d="m309 219 6 1c-2 5-4 2-6 0v-1zM326 215l3-3c0 1-1 3-3 3z"/><path fill="#2D2A9F" d="m323 217 1-1-1 1z"/><path fill="#030927" d="M210 154c-4 0-8-1-10 3h-3c-1-5-3-4-6-3-1-2 1-3 2-5 2-2 5-3 7 0s4 4 7 2c2-2 4-2 7-3l1-1c3-1 5 0 8 1l2 3v1c-4 0-9-3-13 1l-2 1z"/><path fill="#040302" d="m223 150-8-2v-1l1-3c2 0 5 2 8 1l2 2-3 3z"/><path fill="#030813" d="M215 147v1h-1l-1-2c1-1 1 0 2 1z"/><path fill="#02020A" d="m265 225-9 2 1-4v-3l6-1 2 6zM275 220h5l2-1h3c0 4-3 4-6 4-2 0-5 0-4-3z"/><path fill="#03040A" d="M288 219v-1l1-1 6-1 1 2v3h-2l-4 1-2-3z"/><path fill="#2D2A9F" d="M285 219h-2l-1-1h4l-1 1z"/><path fill="#020204" d="m296 327-1 2 1-2z"/><path fill="#020203" d="m225 147-1-2h3l5 2 1 4-1 1-4 1-2-1c-1-1-2-3-1-5z"/><path fill="#3834F6" d="m301 331 2-1c1-1 1-4 4-4h1c1 4 1 7-2 8-2 1-4 1-5-2l-1-1h1z"/><path fill="#0C0C57" d="m300 331 1 1h-2l1-1zM298 333v1-1z"/><path fill="#02020A" d="M231 151h2c2 2 5 0 6 3 2 2 3 4 2 7h-5l-4 2-1 1-4 3-2 3v2l-2 2h-2l-4-1a15 15 0 0 0-8 2h-1c-5 1-5-2-5-6v-2c0-3 1-5 4-7h1l9-1 4-3 2-1h2c2 1 3 2 5-1l1-3z"/><path fill="#040302" d="M295 221v-2l1-2h1l2 2 4 1 1 2c-2 4-4 1-7 1-1 0-2 0-2-2z"/><path fill="#020203" d="m295 221 2 2v3h-3v-5h1z"/><path fill="#070738" d="m159 328-6-7v-2l1-1 1 1v1l2 4 2 4z"/><path fill="#3834F6" d="M154 318h-1 1z"/><path fill="#030316" d="m223 186-1 1-1 1-7 3c-2 0-4 2-4 5 1 1 0 2-1 3-4 1-8-1-11-2l-1-1v-15l3-1c4 3 8 1 11-1h8l1 1h2c2 2 2 4 1 6z"/><path fill="#3633FB" d="M192 161c0-1-1-3 1-4s2 1 3 2c7 2 5 7 4 12 0 3-1 6-4 8-2 1-2 4-2 6v7c-1 1 0 3-2 3l-2-3c-5-4-4-7-1-12 1-3 2-5 5-7 4-1 5-4 5-8l-2-3-5-1zM210 155l2-2h8c-3 4-6 5-9 5l-8 1c0-4 5-2 7-4zM209 199l1-3c2-1 3-3 6-3 0 6-3 8-7 6z"/><path fill="#030927" d="M203 169c1 2 1 6 5 5 2 1 1 2 0 3h-1c-6 0-6 0-4-8zM207 160l-4 7c-1-3 0-6 4-7z"/><path fill="#0C0C57" d="m223 187-1-6c3 0 3 2 2 5l-1 1z"/><path fill="#030927" d="M231 155c-2 3-4 2-6 0h6z"/><path fill="#030813" d="M231 155h-2l-1-1v-2l3-1v4z"/><path fill="#030927" d="m217 159-8 1c2-2 5-1 8-1zM228 152v2l-3-1v-1h3z"/><path fill="#3733F0" d="M197 162c1 0 2 0 2 2l-2-2z"/><path fill="#3633FB" d="M207 177v-1l2 1v1c-1 1-2 0-2-1z"/><path fill="#030927" d="m223 155-2 1 2-1z"/><path fill="#0C0C57" d="m221 188 1-1-1 1z"/><path fill="#3633FB" d="M203 159z"/><path fill="#3534C9" d="M133 223h2-2z"/><path fill="#3834F6" d="m101 174 1-1 1-1h2v-1h1v-1l1-1c1-1 0-3 2-4l2 4c0 3-3 5 0 8-3-2-7 1-10-3zM112 177h4c0 3-1 3-5 0h1z"/><path fill="#03041D" d="M211 243h-2c-2 2-6-1-7 3l-3 1c-3-5-3-10-2-15v-1l2-2h1c5-2 10-1 12 5l1 4c0 2 0 3-2 5z"/><path fill="#3834F6" d="m181 221-2-2-1-1v-3c3-2 4 1 6 2l2 1h1c2 1 3 1 5-1s4-1 5 1l2 2v1l-1 3v1l1 3-2 3-5-2-1-1-1-3-1-1c-2-3-6-1-8-3zM199 247l1-1 2-1 1 1v3l-1 3-3 1v-6z"/><path fill="#070634" d="m185 216 1 1h-2l1-1zM182 213l1 1-1-1z"/><path fill="#3733F0" d="M109 164c0 2 0 4-2 6v-1l-2-4-2-3-1-6c-1-1-1-3 1-5h2c0 2 0 4 2 6l2 7z"/><path fill="#3532B5" d="m167 222-1-1v-1l3-2-2 4zM163 222l1 2c-2 1-2 0-1-2z"/><path fill="#03020E" d="M196 221h1l1-2 1-2 3-1 2-1h3l1 1c1 6 1 6-6 9l-1 1-1 1h-2l-1-1-1-1v-4z"/><path fill="#3734DF" d="M206 216h-1l-3-2v-4h1c3 3 8 4 7 10-2 0-2-2-3-3l-1-1z"/><path fill="#3532B5" d="m199 217-1 2h-1c-1-1-2-2-5-2 2-4 4-1 7 0zM192 217c-1 2-2 3-5 2l5-2z"/><path fill="#0C0C57" d="m202 214 3 2h-3v-2z"/><path fill="#3332BB" d="M184 217h2v1l-2-1zM190 225c1 0 2 0 1 2l-1-2zM189 225h1-1z"/><path fill="#3633FB" d="M166 220v1-1z"/><path fill="#2D2DA9" d="M105 171c1 0 0 0 0 0zM107 169v1-1zM104 172c-1 0 0 0 0 0z"/><path fill="#3935C1" d="m216 289-2 2c-8 2-16 3-24-2 8 2 17 4 26 0z"/><path fill="#3332BB" d="m175 295-2 4h-3v-4c6-1 3-6 6-9l2 1c1 2 1 3-1 5l-1 1-1 2z"/><path fill="#3935C1" d="M190 285c-1-3-1-6-6-5 1-2 3-2 5-1 2 2 2 4 1 6z"/><path fill="#02080E" d="m177 287-1-1v-1c-1-2 0-3 2-4h2v4l-2 2h-1z"/><path fill="#3332BB" d="M175 285c-3-2-2-4 1-5 1 2-1 3-1 5zM165 291c-2 0-4 0-6-2 2-1 4 1 6 2z"/><path fill="#05063A" d="m175 285 1-4 2-1v1l-2 4h-1z"/><path fill="#3434AF" d="m145 292-2-2c1-1 3-1 2 2z"/><path fill="#3935C1" d="M178 281v-1h6l-1 1-3 1-2-1zM147 301l-2 1v-2l2 1z"/><path fill="#3434AF" d="m155 285 3-1-3 1zM145 299v-2 2z"/><path fill="#3332BB" d="m170 294-1-1 1 1zM169 292h-2 2z"/><path fill="#3434AF" d="M153 285h-1 1z"/><path fill="#020203" d="m233 266-1-1c-1-2 0-4 2-6v-2l2-1h6c2 2 3 3 6 3h1l1 1 1 1 2 1 2 1 1 1v2c-1 4 0 7 1 11l-1 8h-6c-2-3-5-4-8-2-4 1-7-1-10-3-2-2 0-4 2-5 3-3 3-6-1-9z"/><path fill="#3633FB" d="M265 292c-4 0-8-2-11-3l-2-1 3-2 1-2v-2c0-2 2-4 1-6l-1-1v-3l2-4h6l1 1c2 2 3 2 5 2h1l2 1h1c2 1 4 0 5-1l2 1c3 3 5 5 5 10l-1 3c-1 2-2 4-5 3l-1-1v-6l-2-2c-4 1-7 2-10 0-2 0-3 2-2 5l1 3v4l-1 1z"/><path fill="#040423" d="M233 266c2 0 3-4 5-3 3 2 0 4 0 6l1 4c0 3 0 5-4 4h-2c-1 2 0 3 1 3 3 0 5 3 9 0 2-1 6-1 7 4h-8l-5 1-2-1h-1l-1-1c-3-3-5-6-1-9 3-2 2-5 1-8z"/><path fill="#3633FB" d="M236 246c1-1 5 2 5-3l2-1 1 2v3l1 2-1 2-1 1c-2 4-5 3-8 5h-2c-2-3 2-4 3-6v-5z"/><path fill="#2D2DA9" d="M244 284h6l5 1c0-2 1-2 2-2 1 2 0 3-2 3l-11-2z"/><path fill="#05063F" d="M235 258c0 2-3 4-3 7-2-2-1-4 1-7h2z"/><path fill="#2D2DA9" d="m237 285 5-1c-1 2-3 2-5 1z"/><path fill="#3432C3" d="M235 258h-2v-1h1l1-1v2z"/><path fill="#2D2DA9" d="M233 283h1-1z"/><path fill="#05063A" d="m259 294-1-1 1 1z"/><path fill="#2D2A9F" d="M260 295c0-1 0-1 0 0z"/><path fill="#2D2DA9" d="M234 284h1-1z"/><path fill="#3734DF" d="M169 299h4v3c1 2 0 3-2 4v1h-2v1c-2 1-1 2-2 3l-2 4-3 2-2-2 1-2 1-2 1-1c2-2 2-4 2-7l4-3v-1z"/><path fill="#3332BB" d="M168 300c1 2-1 3-3 3v-1l3-2z"/><path fill="#03041D" d="m221 225 1-1 2-1c4 0 7 2 10 5 2 2 6 0 7 3s-3 4-3 7-3 4-4 2c-4-5-8-2-12 0l-7-3c-2-1-3-2-2-4s3-2 5-3l3-5z"/><path fill="#3733D6" d="M214 233c0 4 5 3 8 6h-8l-2-1-1-3v-4h3v2z"/><path fill="#3332BB" d="m203 245-2 1c1-4 4-3 8-3-1 2-4 1-6 2zM212 238l2 1c1 2-1 3-3 4 0-2 2-3 1-5z"/><path fill="#3834F6" d="m159 315 2 1-1 2-1 1-4 1-1-2c1-3 3-3 5-3z"/><path fill="#3332BB" d="M165 303c0 2 0 5-2 7l2-7z"/><path fill="#03041D" d="M241 251v-1l1-2h1v-1l1-1 4-3 4-4c1-1 2-2 4-1 2 2 6 2 9 4l1 1 2 1v3l-1 2-1 2-3 2c-1 1-2 2-2 5l-2 3-2 1h-2l-2-1c-3-3-5-5-9-4-3 0-3-3-3-6z"/><path fill="#3434AF" d="M266 244c-3 0-7 0-10-4l-4-1-1-4c2-1 2 1 3 1 4 2 7 0 10 2h1c1 1 2 3 1 6z"/><path fill="#070634" d="m254 237-3-2-2-2c0-4 3-5 6-6l-1 1c-1 1-3 2-2 4s2-1 4 0l-2 4v1z"/><path fill="#3432C3" d="M248 243c0 2-1 3-4 4l-1-2v-1l2-1h3z"/><path fill="#03041D" d="m247 239-1 2h-1c-1 1-2 2-3 0l1-1 1-2 1-2c2 0 1 1 2 3z"/><path fill="#060749" d="M247 239c-2-3-3-2-4 1 0-2-1-4 2-5 2 0 2 2 2 4z"/><path fill="#0C0C57" d="M242 241h3v2h-4l1-2z"/><path fill="#3834CF" d="m225 223-3 1 2-2 1 1z"/><path fill="#2D2DA9" d="M257 220v3a37 37 0 0 1-1-5h1v2z"/><path fill="#3434AF" d="m249 233 2 2-2-2z"/><path fill="#0C0C57" d="M246 241c-1 0-1 0 0 0z"/><path fill="#040302" d="M311 213h-2c-3 2-4 0-6-2l-1-2-1-3 1-2 2-1c2 0 3-1 5-3l1 1 7 5c3 3 3 6 1 10h-4l-2-1c0-1 1-2-1-2z"/><path fill="#030813" d="M303 210c2 0 3 3 6 3l-4 2h-1l-1-2v-3z"/><path fill="#0B0C4D" d="M303 215h2c0 2 0 4-2 5-1 1-3 0-4-1 2 0 4 0 4-4zM295 217l-6 1v-1c2-2 5-3 8-1v1h-2zM303 209v4l-3-4h3zM302 204v2l-2 1c-1-2 0-2 2-3z"/><path fill="#030813" d="m299 207 3-1 1 3h-3l-1-2z"/><path fill="#2D2A9F" d="M289 217v1h-1l1-1zM282 218v-1 1z"/><path fill="#0B0C4D" d="m304 203-1 1 1-1z"/><path fill="#3332BB" d="M211 231v3l-1-2c-2-3-4-5-7-1h-3c-1-1 0-2 1-4 4 0 8-1 10 4z"/><path fill="#0C0C57" d="M207 217c1 0 2 1 2 3v2c0 2-1 2-2 2l-7 1c1-2 2-3 4-3 3 0 4-2 3-5z"/><path fill="#3834CF" d="m221 225-2 5h-1c0-2 0-4 3-5z"/><path fill="#3935C1" d="m200 225 6-1 1 1c-2 0-3 0-5 2l-3 1v-2l1-1z"/><path fill="#2D2DA9" d="M217 230h2c-1 2-3 2-5 3v-2l3-1z"/><path fill="#3734DF" d="M207 225v-1l1-1 2 1-3 1z"/><path fill="#3533C5" d="M203 210zM234 185h-1c-3 2-3 5-2 8-3-1-4-4-2-5 3-4 2-8 1-13h1l1 2c2 2 3 5 2 8zM209 177h-1l1-3 1-1 7-1 3 1h2l3 1c-1 2-3 1-5 1-3-1-7-2-11 2z"/><path fill="#030927" d="m225 174-3-1 3-1v2z"/><path fill="#0C0C57" d="M221 180h-1 1z"/><path fill="#3733F0" d="M257 218h-1v-3l1-1 1-2 2-2c2 0 3 1 3 3v4h-4l-1 1h-1z"/><path fill="#3733D6" d="m262 217 1-3 3 2 1 1h-5z"/><path fill="#3834ED" d="M267 217v-1l1-1 1-1h2l1 1c0 3-2 2-5 2z"/><path fill="#3733D6" d="m268 215-1 1 1-1zM269 214l-1 1 1-1z"/><path fill="#030927" d="M226 170c-1-1-1-2 1-3l-1 3zM232 163c1-1 1-2 3-2l-3 2zM231 164l1-1-1 1z"/><path fill="#3434AF" d="M267 217c2 0 4 0 5-2l3 1 1 1c-3 2-7 1-10 1l1-1z"/><path fill="#2D2DA9" d="m262 217-4 1v-1h4z"/><path fill="#030303" d="M280 220h-1 1z"/><path fill="#3733D6" d="m257 214-1 1 1-1z"/><path fill="#3432C3" d="M339 321v2c-2 2-4 0-6 3l1 2v1l-2 1h-5c2-2 0-7 4-8 3 0 4-4 8-3v2zM322 329l5 1-1 5-8-2c0-3 2-3 4-4z"/><path fill="#0C0C57" d="M332 329h1l2 5c-1 1 0 2-2 3l-1-6v-2zM332 338l1 1-1 3-1-2 1-2z"/><path fill="#3332BB" d="M326 340v-1 1zM321 342h1-1z"/><path fill="#3434AF" d="M332 329v1h-1l1-1z"/><path fill="#3834F6" d="M322 329c0 2-2 3-4 3h-1a29 29 0 0 1-1-3c1-1 3-2 5-1l1 1z"/><path fill="#020203" d="m332 342 1-3c2 1 1 2 0 3h-1z"/><path fill="#3834ED" d="m318 177 1 14c1 4 3 5 6 8l-1 2h-2l-6-8-5-4c2-2 3-4 2-7v-1l-2-1h-1c-1-1-1-2-3-2h-1l-1-1v-3c4-2 8-2 12 0l1 3z"/><path fill="#050637" d="M310 155h4l-5 5c-3 2-6 2-8-1-1-2-2-6 3-7 0 2-2 4 0 6 1 1 3 1 4-1l2-2z"/><path fill="#070738" d="M305 172c-1-2 1-2 2-2 5 2 8 0 10-5h2v6l-1 1-2 2c-4 1-8-1-11-2z"/><path fill="#070738" d="m325 157 1 5-1 3-4 1h-2l-1-1c4-2 2-5 1-8l1-1 5 1z"/><path fill="#3935C1" d="m304 172 11 2h2v1h-12l-1-1v-2z"/><path fill="#3432C3" d="M313 181c2 3 2 6-2 8 0-2 2-2 2-5v-3z"/><path fill="#070738" d="m304 174 1 1v2c-1-1-3-1-1-3zM312 180h-4v-1h3v1h1z"/><path fill="#050637" d="m320 156-1 1-2-2 3 1z"/><path fill="#030813" d="M313 181v3-3z"/><path fill="#070738" d="m306 179 1-1 1 1h-2z"/><path fill="#3834ED" d="M312 181v-1 1z"/><path fill="#070738" d="M317 159c-1 0 0 0 0 0z"/><path fill="#030813" d="M325 177c1-2 3-4 3-7 2-2 2 0 4 0v2c-2 1-3 4-7 5z"/><path fill="#060749" d="m333 172-1-1 9-1c-2 3-5 2-8 2z"/><path fill="#3834ED" d="m310 155-2 2c-1 0-2-1-2-3l1-1c2-1 3 0 3 2z"/><path fill="#3633FB" d="m318 166 2-1 4-1 2-2h4v2l-5 4-2 2h-4l-1-3v-1z"/><path fill="#3532B5" d="m332 161-2 1 2-1zM333 155s0 1 0 0z"/><path fill="#3332BB" d="m327 153 1-2-1 2z"/><path fill="#060749" d="M323 169h1c3-1 6-2 8 1h-4c-3 0-4 1-6 4l-2 2v3l-1-2-2-3v-2c0-1 0 0 0 0 0-2 2-2 3-2l3-1z"/><path fill="#030813" d="M348 165v1-1z"/><path fill="#04042E" d="M177 287h1c4 2 2 3-1 5v-5zM180 282l3-1v1l-3 3v-3z"/><path fill="#02080E" d="m187 292 2 2h-3c-1-1 0-1 1-2z"/><path fill="#04042E" d="m176 293 1-1-1 1z"/><path fill="#3834F3" d="m175 327 3-1c1 3 3 5 3 8 0 2 0 5-4 4l-3-4c-1-2-2-1-4-2l-1-3 6-2z"/><path fill="#070738" d="M153 337c1 4 2 5 6 5l2 1c5 5 6 0 8-3l-1 7v1l-4 1c-2 0-2-2-3-3l-1-1-4-1c-5-1-5-2-3-7zM175 332l2 5-6 2c3-4 0-5-3-7l2-1 5 1z"/><path fill="#2D2DA9" d="M175 344c1 1 0 2-1 2l1-2z"/><path fill="#070738" d="m169 340 1-1-1 1z"/><path fill="#3332BB" d="M168 348v-1 1z"/><path fill="#2D2DA9" d="m172 306 1-3c1 1 1 3-1 3zM167 311l1-3-1 3zM170 307z"/><path fill="#3935C1" d="M171 332h-3l-2-4h4v1l1 2v1z"/><path fill="#3834CF" d="M170 329v-1l5-1-5 2z"/><path fill="#070738" d="m166 328 2 4-7-3 5-1z"/><path fill="#3734DF" d="m159 319 1-1v1h-1zM339 319c-1 3-3 5-7 3 0-2 0-4-2-4-4 0-7-3-10-5-4-2-8-3-10 3l-1 1v1l-1-6v-1l1-3 1-1 3-1c2-1 5 0 7-3l2-1 2 1 1 1 1 2v2l2 1h1l3 2a16 16 0 0 0 2 0l5 1 1 1c2 1 1 3 0 4v1l-1 1z"/><path fill="#3332BB" d="m307 326-4 4c0-2-1-4 1-6l3 2z"/><path fill="#3432C3" d="m321 327-5 2c1-2 3-4 5-2z"/><path fill="#2D2A9F" d="M310 317v-1 1z"/><path fill="#020203" d="m335 314-2-1-1-1-1-1c2-4 3-9 0-14v-4c2-4 4-5 7-2 3 2 7 2 11 3l1 1c0 3-4 3-5 5v1l-1 1-1 5-1 1c1 1 0 2-1 3l-4 2-2 1z"/><path fill="#020817" d="M331 297c5 4 6 11 1 15h-4l-2-1v-2c2-2 3-5 3-9l1-2 1-1zM349 294c-4 2-8-2-13 1-2 1 0-3 0-4-2-1-3 1-5 2 0-5 1-6 7-4l4 2h1l2 1c2 0 3 0 4 2z"/><path fill="#3532B5" d="m350 295-5-3c1-3 4 1 4-2 1-2-1-3-3-5 1-2 3 0 4 1l1 1v6l-1 2h-1z"/><path fill="#3332BB" d="M334 285c3-3 6 1 10 0-3 3-6 0-10 0zM324 284l7 1c-2 1-4 1-7-1z"/><path fill="#2D2DA9" d="m322 302-2 1v-2l1-2h1v3z"/><path fill="#2D2A9F" d="m325 303 3-3 1 2c-1 1-2 2-4 1z"/><path fill="#3532B5" d="m342 291-3-1c1-1 2 0 3 1z"/><path fill="#020817" d="m325 303 3-1c1 1 0 2-2 3l-1-1v-1z"/><path fill="#2D2A9F" d="M330 298v1l-1 1h-1l2-2z"/><path fill="#2D2DA9" d="m324 297 1-2-1 2zM325 294v-1 1z"/><path fill="#3532B5" d="M343 291h-1 1z"/><path fill="#2D2A9F" d="M324 305v-1c0-1 0 0 0 0h1v1h-1z"/><path fill="#070634" d="m286 285-1-3v-9c3 0 4 3 3 5 0 3-1 6 2 7s7 1 9-3l1-1 1 1v4l-1 1c-4 3-7 0-11 0l-2-1-1-1z"/><path fill="#3633FB" d="M287 286h2c1 3 3 3 5 4 2 0 3 1 3 3l-1 3-4-2-4-3c-3-1-2-2-1-5zM307 278l-1 7c-1 2-3 6-6 2l-1-1c3 0 1-2 2-4l1-1 3-3h2z"/><path fill="#020204" d="m309 283 3 1h-1l-1-1h-1z"/><path fill="#3432C3" d="M266 292v-5h1v4l-1 1z"/><path fill="#3534C9" d="M265 284c-2-2-2-3 0-6 2-2 3-1 4 1s3 0 5 0 4-2 5 2c-4-2-8 1-13 0l-1 3zM279 285v1-1z"/><path fill="#2D2A9F" d="m309 308-1 3 1-3z"/><path fill="#070634" d="M281 273h-2c-3-1-5 2-8 0l-4-2v-2h1c6-2 12-3 16 4h-3z"/><path fill="#04042E" d="m266 244-1-5c3-1 2 3 4 4 4 3 4 9-2 11l-1-1 1-3v-4l-1-2zM269 269h-2l-6-1-3-3v-2l1-2 2-3h2l1 1c0 2 0 3 2 4s3 3 3 6z"/><path fill="#070634" d="m307 278-2 1h-2c-1-1 0-2 2-3l3-1h3v1l-4 2z"/><path fill="#3534C9" d="M281 273h4c1 3 2 6 0 9l-4-9z"/><path fill="#05063F" d="M311 276v-1l2-1h5l1 1v1h-8z"/><path fill="#04042E" d="M265 257c1 0 3 0 2 1l-2 1h-1l-1-1 1-1h1z"/><path fill="#3332BB" d="m302 280 3-1c-1 1-1 2-3 2v-1z"/><path fill="#2D2DA9" d="M266 257h-2l-1-1 2-2 1 1v2z"/><path fill="#020817" d="m313 274-2 1 2-1z"/><path fill="#040302" d="m308 275-3 1 3-1z"/><path fill="#04042E" d="m267 254-1 1-1-1h2z"/><path fill="#3332BB" d="M302 281v1h-1v-1z"/><path fill="#3534C9" d="M301 281v1l-1-1h1z"/><path fill="#04042E" d="M254 237v-1c3 2 7-2 10 1-3 1-6 2-10 0z"/><path fill="#03020E" d="M319 275v-1 1z"/><path fill="#070738" d="M143 349c2-4 6-5 9-2 3 2 6 1 8 4l1 1c-3-1-6-2-10-1l-3-3-5 1z"/><path fill="#05063F" d="M166 356c1 2 2 2 4 2l-1 1c-4 0-7-2-8-6h1l3 1 1 2z"/><path fill="#03020E" d="M148 348c2-1 3 0 3 3l-3-3z"/><path fill="#070738" d="M143 354c-2-1-2-3 0-5v5zM143 358v-3c2 1 2 2 0 3z"/><path fill="#3432C3" d="M162 353h-1v-2l1 2z"/><path fill="#070738" d="M140 342v-2l6-3c0 3-3 4-6 5zM148 337c0-6 2-4 5-1l-5 1z"/><path fill="#3532B5" d="m161 346 3 2c-1 0-2 0-3-2z"/><path fill="#3434AF" d="m156 344 4 1-4-1zM165 354h-2 2z"/><path fill="#070738" d="M134 357v1l-1-1h1zM154 336v1-1z"/><path fill="#040302" d="m335 334-2-5h2c0 2 3 3 0 5z"/><path fill="#030316" d="M335 329h-1l-1-1v-2h4l-2 3z"/><path fill="#020817" d="m336 313 5-2-1 2h-4zM342 308l1-1-1 1zM344 302l1-1-1 1z"/><path fill="#3432C3" d="M339 319v-1 1z"/><path fill="#02080E" d="M138 339c-1 0-3 0-4-2 1 0 3 0 4 2z"/><path fill="#030813" d="M317 216c0-3 2-6-1-9v-2c2 0 5 3 7 0 2 2 0 3-1 5v1l-1 1-1 2-2 2h-1z"/><path fill="#020204" d="M316 205v2c-3 0-6-2-6-6 3 0 4 1 6 4z"/><path fill="#030813" d="m322 201 1 3-3-3h2z"/><path fill="#2D2A9F" d="m317 216 1 1h-5l4-1z"/><path fill="#3834F3" d="m324 201 1-2-1 2z"/><path fill="#2D2A9F" d="M320 214v-2 2zM322 211v-1 1z"/><path fill="#030813" d="m320 176 2-2-2 2z"/><path fill="#3532B5" d="m317 174 2 3h-1l-1-2v-1z"/><path fill="#020204" d="m311 213-3-5c5 0 6 2 5 6h-1l-1-1z"/><path fill="#030813" d="M312 214h1v3h-2l1-3zM226 152h-1l-2-2c0-1 0-2 2-3l1 5z"/><path fill="#0B0C4D" d="M257 223v-1 1z"/><path fill="#030813" d="m295 217 2 1-2 1v-2z"/><path fill="#030927" d="m220 173-3-1c1-1 2 0 3 1zM210 173l-1 1 1-1z"/><path fill="#3532B5" d="m154 318 1 1-1-1z"/><path fill="#040423" d="m217 185-1-1h2l-1 1z"/><path fill="#3633FB" d="M199 227h3l-2 4h-2v-3l1-1z"/><path fill="#0C0C57" d="m199 227-1 1c-2 0-2-1-2-3h1l1 1h1v1z"/><path fill="#3532B5" d="M196 221v3-3z"/><path fill="#0B0C4D" d="M197 219h1l-1 2v-2zM198 226z"/><path fill="#0C0C57" d="m200 225-1 1 1-1zM206 216l1 1-1-1z"/><path fill="#3432C3" d="M241 251c0 2 2 4 4 4 5-1 7 1 9 5l-1 3h-3v-1l-1-1-2-1h-2c-2 1-3 0-4-2l-1-1h-5c1-3 5-3 6-6z"/><path fill="#3633FB" d="M252 263c0-1 0-2 2-3h2l2-1 2 2v4l-1 1-2 1-2-2h-1l-2-2z"/><path fill="#040423" d="M257 284h-1l-4-4 4-3h1c3 2 2 4 1 6l-1 1z"/><path fill="#050637" d="M257 277h-1c-4-3-2-6-1-10 2 0 2 1 2 2v8z"/><path fill="#2D2DA9" d="M257 275c-2-2 0-5-2-8v-1h2c2 2 0 3 0 6v3z"/><path fill="#050637" d="m241 258 4 1h2l2 2c-3-1-6 2-8-3z"/><path fill="#2D2DA9" d="m252 263 2 2-3-1v-1h1z"/><path fill="#050637" d="M251 263v1l-1-1h1z"/><path fill="#05063F" d="M235 257h1l-1 1v-1z"/><path fill="#050637" d="m249 261 1 1-1-1zM240 257l1 1-1-1z"/><path fill="#020203" d="M261 267c3-2 4-1 6 2v1l-1 2-4-2h-1v-3z"/><path fill="#3534C9" d="M271 273c3 1 5-4 8 0l-6 2-1-1-1-1z"/><path fill="#2D2DA9" d="M257 277v-1c3 2 3 4 1 7 0-1 1-3-1-6z"/><path fill="#3532B5" d="M265 271h2l4 2-7-1 1-1z"/><path fill="#3634E3" d="M257 272v-5l2-1v2l-2 4z"/><path fill="#3532B5" d="M259 269v-5h1l1 3v2h-2z"/><path fill="#3733F0" d="m272 274 1 1-1 1v-2z"/><path fill="#070634" d="M265 271h-2l-1-1 3 1z"/><path fill="#3532B5" d="m262 270 1 1-2-1h1z"/><path fill="#3733D6" d="m243 245 1 2h-1v-2z"/><path fill="#3432C3" d="m243 248 1-1-1 1v-1zM242 249l-1 1 1-1z"/><path fill="#3834F6" d="m266 253-1 2-4 1c-1-2-1-4 1-5l3-1 2 1v1l-1 1z"/><path fill="#3634E3" d="M261 255h3v2l-2 2-2 2-2-2 1-2 2-2z"/><path fill="#3432C3" d="m267 253-2-3v-2h2l2 1c0 2 0 3-2 4zM261 255l-2 2c-1-3-1-5 3-6l-1 4z"/><path fill="#2D2A9F" d="m266 244 1 2-1-2z"/><path fill="#3332BB" d="M256 260h-2 2z"/><path fill="#2D2A9F" d="m267 246 1 1h-2l1-1zM267 248h-1v-1h1v1z"/><path fill="#3733D6" d="M260 217h-2 2z"/><path fill="#0C0C57" d="m333 328 1 1h-1v-1z"/><path fill="#3432C3" d="m308 179-1-1c1-1 3-1 4 1h-3zM312 180h-1l2 1-1-1zM305 176v-1 1z"/><path fill="#3935C1" d="m322 170-5 1 1-4 1 2 3 1z"/><path fill="#3532B5" d="M317 172v1l-1 1 1-2z"/><path fill="#3534C9" d="M323 164c0 1 0 3-3 1l3-1z"/><path fill="#030303" d="M323 159z"/><path fill="#3432C3" d="m322 170-3-1h4l-1 1z"/><path fill="#3834CF" d="M171 332v-1l4 1h-4z"/><path fill="#020817" d="M325 311c-1-1-2-1-2-3l1-2c2 0 3 1 2 3v1l-1 1z"/><path fill="#2D2DA9" d="M336 313h3c-1 2-3 1-5 1l2-1zM328 312h4v1l-4-1z"/><path fill="#2D2A9F" d="m324 307-1 1v-3h1v2z"/><path fill="#2D2DA9" d="M325 311h1-1z"/><path fill="#020817" d="M332 313v-1l1 1h-1z"/><path fill="#040302" d="M324 307v-2l1-1 3-2v-1l2-1c3 4 1 7-4 10l-2-3z"/><path fill="#3534C9" d="M301 282h1c0 2 2 4-2 5v-3l1-2z"/><path fill="#3332BB" d="m301 282-1 2 1-2z"/><path fill="#2D2DA9" d="M267 248v-1h1l1 2-2-1z"/><path fill="#3432C3" d="M266 254v-1h1l-1 1z"/><path fill="#2D2DA9" d="m262 259 2-2v1l-2 1z"/><path fill="#3634E3" d="M260 264h-1l1-1v1z"/><path fill="#3834F6" d="M247 259h-2c0-1 0-3 2-3 2 1 1 2 0 3z"/><path fill="#04042E" d="M267 253z"/></svg>